<?xml version="1.0" encoding="UTF-8"?>
<svg width="256" height="256" version="1.1" viewBox="0 0 67.733 67.733" xmlns="http://www.w3.org/2000/svg">
 <g stroke-width="6.0653">
  <rect x=".75816" y="1.0109" width="66.339" height="65.834" ry="4.9912" fill="#fff"/>
  <path d="m52.711 52.935q0 0.79237-0.27561 1.4125-0.27561 0.62012-0.75792 1.0335-0.44786 0.41341-1.1024 0.62012-0.62012 0.17225-1.2747 0.17225h-3.8585q-1.2058 0-2.1015-0.24116-0.86128-0.24116-1.6192-0.86128-0.72347-0.65457-1.4125-1.7225-0.68902-1.1024-1.5503-2.825l-11.093-20.843q-0.96463-1.8604-1.9637-3.9963-0.99908-2.1704-1.7915-4.203h-0.0689q0.1378 2.4805 0.20671 4.9609 0.0689 2.446 0.0689 5.0643v23.323q0 0.34451-0.20671 0.62012-0.17226 0.27561-0.65457 0.48231-0.44786 0.17225-1.2402 0.27561-0.79237 0.10335-2.0326 0.10335-1.2058 0-1.9982-0.10335-0.79237-0.10335-1.2402-0.27561-0.44786-0.20671-0.62012-0.48231t-0.17226-0.62012v-40.066q0-1.6192 0.93018-2.4116 0.96463-0.82682 2.3427-0.82682h4.8576q1.3091 0 2.2049 0.24116 0.89573 0.20671 1.5847 0.72347 0.72347 0.51676 1.3436 1.4469 0.62012 0.89573 1.2747 2.2393l8.6816 16.295q0.75792 1.4814 1.4814 2.9283 0.75792 1.4125 1.4469 2.8594 0.68902 1.4125 1.3436 2.7905 0.65457 1.378 1.2747 2.7561h0.03445q-0.10335-2.4116-0.17225-5.0298-0.034451-2.6183-0.034451-4.9954v-20.912q0-0.34451 0.20671-0.62012 0.20671-0.27561 0.68902-0.48231 0.48231-0.20671 1.2747-0.27561 0.79237-0.10335 2.0326-0.10335 1.1713 0 1.9637 0.10335 0.79237 0.0689 1.2058 0.27561 0.44786 0.20671 0.62012 0.48231 0.17226 0.27561 0.17226 0.62012z" fill="#2d90ff" aria-label="N"/>
 </g>
</svg>
