<?xml version="1.0" encoding="UTF-8"?>
<svg width="82mm" height="82mm" version="1.1" viewBox="0 0 82 82" xml:space="preserve" xmlns="http://www.w3.org/2000/svg"><g transform="translate(-21.444 -18.585)"><path transform="rotate(90)" d="m44.437-102.88h30.674c5.3533 0 9.663 4.3097 9.663 9.663v61.38c0 5.3533-4.3097 9.663-9.663 9.663h-30.674c-5.3533 0-9.663-4.3097-9.663-9.663v-61.38c0-5.3533 4.3097-9.663 9.663-9.663z" fill="#fbfbfb" stroke-linecap="round" stroke-width="1.2811"/><path d="m62.523 34.774v50" fill="#ff922a" stroke="#797979" stroke-dasharray="5.29199982,2.64599991" stroke-width="1.323" style="paint-order:stroke markers fill"/><g transform="matrix(-.063538 0 0 .063538 58.461 56.16)">
	<path class="st0" d="m500.32 211.66-34.024-54.143c-11.508-18.302-31.61-29.402-53.216-29.402h-158.44c-26.654 0-52.195 10.719-70.849 29.745l-45.216 46.107-107.84 24.965c-18.005 4.177-30.738 20.214-30.738 38.682v42.348c0 9.122 7.406 16.538 16.538 16.538h57.336c-0.074 1.141-0.185 2.274-0.185 3.425 0 29.8 24.167 53.958 53.977 53.958 29.792 0 53.958-24.158 53.958-53.958 0-1.151-0.111-2.284-0.185-3.425h169.67c-0.074 1.141-0.185 2.274-0.185 3.425 0 29.8 24.166 53.958 53.958 53.958 29.81 0 53.958-24.158 53.958-53.958 0-1.151-0.092-2.284-0.166-3.425h36.789c9.132 0 16.538-7.416 16.538-16.538v-57.81c-1e-3 -14.329-4.047-28.352-11.676-40.492zm-372.66 139.77c-11.879 0-21.494-9.643-21.494-21.504 0-11.871 9.615-21.495 21.494-21.495 11.86 0 21.494 9.624 21.494 21.495 0 11.86-9.634 21.504-21.494 21.504zm136.46-135.68h-97.188l37.198-37.93c13.216-13.476 31.628-21.198 50.505-21.198h9.486v59.128zm110.87 0h-85.94v-59.128h85.94zm29.884 135.68c-11.86 0-21.494-9.643-21.494-21.504 0-11.871 9.634-21.495 21.494-21.495 11.879 0 21.494 9.624 21.494 21.495 0 11.86-9.615 21.504-21.494 21.504zm-4.938-135.68v-59.128h13.142c11.879 0 22.756 6.004 29.067 16.065l27.062 43.063z"/>
</g></g><style type="text/css">
	.st0{fill:#000000;}
</style></svg>
